<?xml version="1.0" standalone="no"?><!DOCTYPE svg PUBLIC "-//W3C//DTD SVG 1.1//EN" "http://www.w3.org/Graphics/SVG/1.1/DTD/svg11.dtd"><svg t="1646988965447" class="icon" viewBox="0 0 1024 1024" version="1.1" xmlns="http://www.w3.org/2000/svg" p-id="1349" xmlns:xlink="http://www.w3.org/1999/xlink" width="250" height="250"><defs><style type="text/css"></style></defs><path d="M933 306.9L531.1 127.6c-12.1-5.4-26.1-5.4-38.2 0L91 306.9c-16.9 7.5-27.8 24.3-27.8 42.8 0 18.5 10.9 35.3 27.8 42.9l401.9 179.3c6.1 2.7 12.6 4.1 19.1 4.1 6.5 0 13-1.4 19.1-4.1l322.8-144V622c0 20.7 16.8 37.6 37.6 37.6 20.7 0 37.6-16.8 37.6-37.6V394.3l4-1.8c16.9-7.5 27.8-24.4 27.8-42.8-0.1-18.5-11-35.3-27.9-42.8zM512 498.1L179.4 349.7 512 201.4l332.6 148.4L512 498.1z" p-id="1350" fill="#e6e6e6"></path><path d="M789.6 496c-10.7-6.9-24.1-8-35.7-2.8L512 601.1 270.1 493.2c-11.6-5.2-25.1-4.1-35.7 2.8-10.7 6.9-17.1 18.8-17.1 31.5v124.8c0 150.7 115.7 248.1 294.8 248.1 179.1 0 294.7-97.4 294.7-248.1V527.5c0-12.7-6.5-24.6-17.2-31.5z m-58 156.4c0 160.5-168.1 173-219.6 173s-219.7-12.5-219.7-173v-67l204.4 91.2c9.7 4.3 20.9 4.3 30.6 0l204.3-91.2v67z" p-id="1351" fill="#e6e6e6"></path></svg>