<?xml version="1.0" standalone="no"?><!DOCTYPE svg PUBLIC "-//W3C//DTD SVG 1.1//EN" "http://www.w3.org/Graphics/SVG/1.1/DTD/svg11.dtd"><svg t="1646969060975" class="icon" viewBox="0 0 1024 1024" version="1.1" xmlns="http://www.w3.org/2000/svg" p-id="2483" xmlns:xlink="http://www.w3.org/1999/xlink" width="200" height="200"><defs><style type="text/css"></style></defs><path d="M928 161.024H699.2c-49.088 0-97.088 14.08-138.432 40.704L512 232.96l-48.832-31.36A255.232 255.232 0 0 0 324.8 160.96H96a32 32 0 0 0-32 32v568a32 32 0 0 0 32 32h228.8c49.088 0 97.088 14.08 138.368 40.704l44.416 28.544a8.32 8.32 0 0 0 4.288 1.28 7.488 7.488 0 0 0 4.352-1.28l44.352-28.544A256.384 256.384 0 0 1 699.2 792.96H928a32 32 0 0 0 32-32V193.024a32 32 0 0 0-32-32z m-603.2 560H136V232.96h188.8c35.392 0 69.76 10.048 99.52 29.184l48.768 31.296 6.912 4.48v462.016a327.232 327.232 0 0 0-155.2-39.04z m563.2 0H699.2c-54.4 0-107.584 13.376-155.2 38.976V297.984l6.912-4.48 48.768-31.36a183.552 183.552 0 0 1 99.52-29.12H888v488zM396.928 360.96H211.072c-3.84 0-7.04 3.392-7.04 7.488v44.992c0 4.096 3.2 7.488 7.04 7.488H396.8c3.84 0 7.04-3.392 7.04-7.488v-44.992a7.232 7.232 0 0 0-6.912-7.488z m223.104 7.488v44.992c0 4.096 3.2 7.488 7.04 7.488H812.8c3.84 0 7.04-3.392 7.04-7.488v-44.992c0-4.096-3.2-7.488-7.04-7.488H627.072c-3.84 0-7.04 3.392-7.04 7.488z m-223.104 132.48H211.072c-3.84 0-7.04 3.392-7.04 7.488v44.992c0 4.16 3.2 7.552 7.04 7.552H396.8c3.84 0 7.04-3.392 7.04-7.552v-44.992a7.232 7.232 0 0 0-6.912-7.488z m416 0H627.072c-3.84 0-7.04 3.392-7.04 7.488v44.992c0 4.16 3.2 7.552 7.04 7.552H812.8c3.84 0 7.04-3.392 7.04-7.552v-44.992a7.232 7.232 0 0 0-6.912-7.488z" p-id="2484"></path></svg>